<svg version="1.0" xmlns="http://www.w3.org/2000/svg"
 width="744.000000pt" viewBox="0 0 744.000000 310.000000"
 preserveAspectRatio="xMidYMid meet">

<g transform="translate(0.000000,310.000000) scale(0.100000,-0.100000)"
fill="none" stroke="none">
<path fill="black" d="M1355 3084 c-360 -56 -638 -185 -866 -401 -260 -248 -412 -573 -450
-967 -28 -286 22 -550 151 -811 168 -338 462 -586 849 -715 255 -85 506 -106
932 -76 196 14 272 16 389 8 79 -6 145 -10 146 -9 5 6 304 586 304 590 0 3
-16 11 -36 17 l-35 12 -77 -82 c-41 -45 -105 -105 -141 -132 -259 -196 -692
-252 -1066 -137 -473 146 -794 531 -866 1038 -17 122 -6 420 20 543 94 434
335 718 722 848 172 58 437 82 674 61 186 -16 538 -71 553 -85 4 -4 71 -223
118 -383 l15 -53 51 0 50 0 -6 83 c-3 45 -8 177 -11 292 -3 116 -8 242 -11
280 l-5 70 -367 0 c-202 0 -511 3 -687 7 -176 4 -333 4 -350 2z m-691 -477
c-466 -487 -531 -1275 -152 -1823 69 -101 184 -221 275 -290 127 -95 114 -95
-27 -1 -163 110 -336 306 -422 480 -99 197 -138 366 -138 599 0 368 115 684
344 943 49 56 192 184 205 185 2 0 -37 -42 -85 -93z"/>
<path fill="black" d="M5191 3013 c-45 -155 -168 -480 -406 -1073 -133 -333 -273 -683 -310
-778 -37 -95 -69 -171 -71 -169 -2 2 -42 136 -88 298 -47 162 -118 412 -160
554 -41 143 -88 314 -105 380 -65 260 -126 650 -103 664 6 3 132 22 281 40
l271 34 0 49 0 48 -756 0 -755 0 3 -47 3 -47 175 -36 174 -35 53 -133 c93
-237 171 -485 369 -1182 278 -975 363 -1292 394 -1467 l13 -73 48 0 48 0 56
178 c31 97 110 308 175 467 65 160 204 504 310 765 105 261 220 545 255 630
35 85 67 167 70 183 10 37 18 34 35 -10 7 -21 59 -137 115 -258 92 -198 559
-1235 658 -1460 35 -80 100 -248 167 -432 l22 -63 47 0 47 0 18 93 c30 149
149 580 391 1417 239 829 297 1018 376 1220 l49 126 177 35 178 34 3 48 3 47
-615 0 -616 0 0 -50 c0 -39 4 -50 16 -50 24 0 548 -61 552 -64 5 -6 -50 -306
-78 -421 -33 -137 -215 -787 -325 -1160 -41 -137 -82 -279 -92 -314 l-19 -64
-112 261 c-62 144 -225 508 -363 809 -137 302 -298 668 -356 816 l-107 267
-46 0 -47 0 -22 -77z m-1285 -1276 c278 -977 329 -1166 321 -1190 -5 -15 -12
-25 -15 -22 -5 4 -666 2271 -687 2353 -5 19 -1 22 22 22 l28 0 331 -1163z
m1704 8 c199 -451 400 -906 447 -1012 l85 -192 -14 -61 -13 -60 -114 262 c-63
145 -265 605 -449 1023 -319 727 -333 762 -327 805 7 43 14 65 20 58 1 -2 166
-372 365 -823z"/>
</g>
</svg>
