<?xml version="1.0" encoding="utf-8"?>
<!-- Generator: Adobe Illustrator 26.5.0, SVG Export Plug-In . SVG Version: 6.00 Build 0)  -->
<svg version="1.1" id="Layer_1" xmlns="http://www.w3.org/2000/svg" xmlns:xlink="http://www.w3.org/1999/xlink" x="0px" y="0px"
	 viewBox="0 0 576 216" style="enable-background:new 0 0 576 216;" xml:space="preserve">
<style type="text/css">
	.st0{fill-rule:evenodd;clip-rule:evenodd;}
</style>
<g>
	<g>
		<g>
			<path d="M222,44c-0.9-0.1-2.6-0.4-5-0.4c-14.3,0-19.6,8.6-19.6,21.4v38.7c0,2.4,0.6,3,3,3h0.6c2.4,0,3-0.6,3-3V65.2
				c0-9.7,2.9-15.3,13-15.3c2.1,0,3.5,0.1,4.9,0.4c2.2,0.4,2.9-0.3,2.9-2.5V47C224.7,44.7,224.2,44.2,222,44"/>
			<path d="M304,44.7h-0.6c-2.4,0-3,0.6-3,3v55.9c0,2.4,0.6,3,3,3h0.6c2.4,0,3-0.6,3-3V47.8C307,45.4,306.4,44.7,304,44.7"/>
			<path d="M418.7,43.6c-18.7,0-25.1,12.8-25.1,26.4v33.6c0,2.4,0.6,3,3,3h0.6c2.4,0,3-0.6,3-3V70c0-10.5,3.9-20.1,18.5-20.1
				c14.6,0,18.5,9.6,18.5,20.1v33.6c0,2.4,0.6,3,3,3h0.6c2.4,0,3-0.6,3-3V70C443.8,56.2,437.7,43.6,418.7,43.6"/>
			<path d="M134.2,71.8c0-0.2,0-0.3,0-0.5c0.3-4.3,1.8-8.5,4.4-12c4.2-5.7,11-9.1,18-9.1h0.4c12,0,21.8,9.6,22.5,21.6H134.2z
				 M157.2,43.5h-0.4c-9.1,0-17.8,4.4-23.3,11.8c-3.3,4.5-5.3,9.9-5.7,15.5c-0.6,8.5,0.3,15.1,2.8,20.4
				c4.8,10.1,15.1,16.7,26.2,16.7h1.5c8.7,0,16.8-3.9,22.3-10.6c1-1.2,1.3-2.4-0.9-3.4l-0.8-0.4c-2.2-1.1-3.2-0.5-4.9,1.2
				c-4.2,4.1-9.8,6.5-15.7,6.5h-1.5c-8.6,0-16.5-5.1-20.3-12.9c-1.3-2.7-2-5.9-2.2-9.8h47.4c3.7,0,4.7-1.8,4.7-5.5
				C186.2,56.5,173.2,43.5,157.2,43.5"/>
			<path d="M98.5,71.3c-4.6-1.6-8.9-3.2-11.6-5.8c-1.7-1.7-2.6-3.2-2.6-6.3c0-3.7,2.2-5.9,4-7.2c2.5-1.7,5.9-2.6,9.7-2.6
				c5.7,0,10.3,2.2,12.4,3.3c2,1.1,3.7,0.3,4.5-0.7l0.3-0.6c0.7-1.4,0.8-2.4-0.1-3c-0.6-0.4-6.8-4.9-17.6-4.9
				c-5.4,0-10.4,1.5-14,4.2c-3.9,2.9-5.9,7-5.9,11.7c0,4.5,1.4,8,4.2,10.8c3.5,3.5,8.8,5.4,13.9,7.1c4.6,1.6,9,3.1,11.7,5.8
				c2.2,2.2,3.2,4.5,3.2,7.4c0,7.3-5.9,11.6-15.7,11.6c-6.8,0-12.6-3-15-4.2c-1.4-0.7-1.8-0.6-3,1.1l-0.3,0.5c-1,2-0.4,3.4,0.9,4.2
				c0.8,0.5,1.1,0.7,3.7,1.8c3,1.2,7.9,2.6,14.1,2.6c6.6,0,12.1-1.6,16-4.7c4-3.2,6.1-7.8,6.1-13.5c0-4.5-1.4-7.9-4.7-11.1
				C109,75,103.7,73.1,98.5,71.3"/>
			<path d="M284.1,44.7h-0.7c-2.4,0-3.1,0.6-3.7,2.9l-14.1,46.7c-1.7,5.5-3,7.2-5.4,7.2c-2.5,0-3.8-1.7-5.4-7.2l-14.1-46.7
				c-0.6-2.3-1.4-2.9-3.7-2.9h-0.7c-2.4,0-2.9,0.6-2.2,2.9l13.5,44.7c3.6,11.7,6,15.2,12.8,15.2c6.8,0,9.2-3.4,12.8-15.2l13.5-44.7
				C287,45.4,286.5,44.7,284.1,44.7"/>
			<path d="M369.9,90.5c-3,4.8-7.8,8.4-13.1,9.8c-1.9,0.5-3.9,0.8-5.9,0.8h-0.4c-5.6,0-11-2.2-15.2-6.2c-4.2-4-6.8-9.3-7.2-14.9
				c-0.6-8.5,0.4-14.4,3.3-19.1c3-4.8,7.7-8.4,13.1-9.9c2-0.6,4-0.8,6-0.8h0.4c5.6,0,11,2.2,15.3,6.2c4.2,4,6.8,9.3,7.2,15
				C373.7,77.1,373.7,84.5,369.9,90.5 M370.7,51.5c-5.5-5.1-12.5-8-19.8-8h-0.4c-2.7,0-5.3,0.4-7.8,1.1c-6.9,2-13.1,6.6-16.9,12.8
				c-2.1,3.4-3.4,7.1-4,11.5c-0.5,3.4-0.6,7.2-0.3,11.7c0.5,7.4,3.8,14.2,9.3,19.4c5.4,5.1,12.5,7.9,19.7,7.9h0.4
				c2.6,0,5.1-0.3,7.6-1c5.8-1.6,11.2-5.1,15-9.9v6.8c0,2.4,0.6,3,3,3h0.6c2.4,0,3-0.6,3-3V76.9c0-2.1,0-4.1-0.2-6
				C379.4,63.5,376.2,56.6,370.7,51.5"/>
			<path d="M500,103.3v-0.7c0-2.6-0.7-3.3-3.3-3.3h-37.9c-2.6,0-3.3,0.7-3.3,3.3v0.7c0,2.6,0.7,3.3,3.3,3.3h37.9
				C499.3,106.6,500,106,500,103.3"/>
		</g>
	</g>
	<g>
		<path class="st0" d="M240,139.1c-6.3,0-12.5,0-18.8,0v3.8c4.6,0,9.3,0,13.9,0l-13.9,15v3.8c6.3,0,12.5,0,18.8,0v-3.8
			c-4.6,0-9.3,0-13.9,0l13.9-15L240,139.1L240,139.1z M215.5,131c-1.4,0-2.5,1.1-2.5,2.5c0,1.4,1.1,2.5,2.5,2.5
			c1.4,0,2.5-1.1,2.5-2.5C218,132.1,216.9,131,215.5,131L215.5,131z M302.6,142.8v-3.8h-5.6v-6.2h-3.8v21.2c0,4.2,3.4,7.5,7.5,7.5
			h1.9v-3.8h-1.9l0,0c-2.1,0-3.8-1.7-3.8-3.8v-11.3H302.6L302.6,142.8z M261.8,150.4c0-4.4-3.6-8-8-8c-4.4,0-8,3.6-8,8
			c0,4.4,3.6,8,8,8C258.2,158.4,261.8,154.8,261.8,150.4L261.8,150.4z M261.8,139.1h3.8c0,7.5,0,15,0,22.6h-3.8V159
			c-2.1,2-4.9,3.1-8,3.1c-6.5,0-11.8-5.3-11.8-11.8c0-6.5,5.3-11.8,11.8-11.8v0c3.1,0,5.9,1.2,8,3.1V139.1L261.8,139.1z
			 M279.7,138.6c-2.5,0-4.8,0.9-6.6,2.4v-1.9h-3.8c0,7.5,0,15,0,22.5h3.8c0-4.2,0-8.5,0-12.7c0-3.6,2.9-6.6,6.6-6.6
			c3.6,0,6.6,2.9,6.6,6.6c0,4.2,0,8.5,0,12.7h3.8c0-4.2,0-8.5,0-12.7C290,143.2,285.4,138.6,279.7,138.6L279.7,138.6z M156.7,150.4
			c0-4.4-3.6-8-8-8c-4.4,0-8,3.6-8,8c0,4.4,3.6,8,8,8C153.1,158.4,156.7,154.8,156.7,150.4L156.7,150.4z M160.4,150.4
			c0,6.5-5.3,11.8-11.8,11.8c-6.5,0-11.8-5.3-11.8-11.8c0-6.5,5.3-11.8,11.8-11.8C155.2,138.6,160.4,143.9,160.4,150.4L160.4,150.4z
			 M123.8,142.3c3.2,0,6,1.9,7.3,4.6h4c-1.5-4.8-6-8.4-11.3-8.4c-6.5,0-11.8,5.3-11.8,11.8c0,6.5,5.3,11.8,11.8,11.8
			c5.3,0,9.8-3.5,11.3-8.4h-4c-1.3,2.7-4,4.6-7.3,4.6c-4.4,0-8-3.6-8-8C115.8,145.9,119.4,142.3,123.8,142.3L123.8,142.3z
			 M182,150.4c0-4.4-3.6-8-8-8c-4.4,0-8,3.6-8,8c0,4.4,3.6,8,8,8C178.4,158.4,182,154.8,182,150.4L182,150.4z M182,139.1h3.8
			c0,7.2,0,14.5,0,21.7v0c0,6.5-5.7,11.8-11.8,11.8c-5.6,0-9.7-3.4-11.2-8.2h4c1.2,2.6,3.7,4.4,7.2,4.4c4,0,8-3.6,8-8V159
			c-2.1,2-4.9,3.1-8,3.1c-6.5,0-11.8-5.3-11.8-11.8c0-6.5,5.3-11.8,11.8-11.8c3.1,0,5.9,1.2,8,3.1V139.1L182,139.1z M199.9,138.6
			c-2.5,0-4.8,0.9-6.6,2.4v-1.9h-3.8c0,7.5,0,15,0,22.6h3.8c0-4.2,0-8.5,0-12.7c0-3.6,2.9-6.6,6.6-6.6s6.6,2.9,6.6,6.6
			c0,4.2,0,8.5,0,12.7h3.8c0-4.2,0-8.5,0-12.7C210.2,143.2,205.6,138.6,199.9,138.6L199.9,138.6z M213.6,139.1h3.8
			c0,7.5,0,15,0,22.6h-3.8C213.6,154.1,213.6,146.6,213.6,139.1z"/>
		<path class="st0" d="M97.3,138v6.2c-1.6-4.1-5.2-6.7-10-6.7c-6.4,0-11.3,5.1-11.3,11.6c0,6.5,5,11.7,11.3,11.7
			c4.8,0,8.4-2.6,10-6.7v6.3h2V138H97.3L97.3,138z M87.6,158.8c-5.4,0-9.6-4.3-9.6-9.8c0-5.4,4.1-9.7,9.6-9.7c5.7,0,9.7,4.1,9.7,9.7
			C97.3,154.7,93.3,158.8,87.6,158.8L87.6,158.8z M327.5,160.7c4.8,0,9.3-3,10-7.5h-2c-0.8,3.4-4.3,5.6-8,5.6
			c-5.3,0-9.5-4.3-9.5-9.7c0-5.5,4.1-9.8,9.5-9.8c3.8,0,7.2,2.3,8,5.4h2.1c-0.9-4.2-5.3-7.2-10-7.2c-6.4,0-11.5,5.1-11.5,11.6
			C316,155.7,321.1,160.7,327.5,160.7L327.5,160.7z M350.5,137.5c-6.4,0-11.5,5.1-11.5,11.6c0,6.5,5.1,11.6,11.5,11.6
			c6.4,0,11.5-5.1,11.5-11.6C362.1,142.6,356.9,137.5,350.5,137.5L350.5,137.5z M350.5,139.3c5.3,0,9.5,4.3,9.5,9.8
			c0,5.4-4.2,9.7-9.5,9.7c-5.3,0-9.5-4.3-9.5-9.7C341,143.6,345.2,139.3,350.5,139.3L350.5,139.3z M391.6,137.5
			c-3.5,0-6.9,1.9-8.1,5.6c-1.2-3.6-4.1-5.6-8.3-5.6c-3,0-6.2,1.4-7.7,4.8V138h-2v22.3h2v-12.9c0-6,4-8,7.3-8c4.6,0,7.3,3,7.3,8
			v12.9h2v-12.9c0-5.9,3.9-8,7.3-8c4.6,0,7.3,3,7.3,8v12.9h2v-13.2C400.7,141,397.2,137.5,391.6,137.5L391.6,137.5z M417.6,137.5
			c-4.8,0-8.4,2.5-10,6.6V138h-2v31.2h2v-15c1.6,4.1,5.2,6.6,10,6.6c6.3,0,11.3-5.1,11.3-11.6C428.9,142.6,423.9,137.5,417.6,137.5
			L417.6,137.5z M417.3,158.8c-5.6,0-9.7-4.1-9.7-9.7c0-5.7,4.1-9.8,9.7-9.8c5.4,0,9.6,4.3,9.6,9.8
			C426.9,154.6,422.7,158.8,417.3,158.8L417.3,158.8z M451.3,138v6.2c-1.6-4.1-5.2-6.7-10-6.7c-6.4,0-11.3,5.1-11.3,11.6
			c0,6.5,5,11.7,11.3,11.7c4.8,0,8.4-2.6,10-6.7v6.3h2V138H451.3L451.3,138z M441.5,158.8c-5.4,0-9.6-4.3-9.6-9.8
			c0-5.4,4.1-9.7,9.6-9.7c5.7,0,9.7,4.1,9.7,9.7C451.3,154.7,447.2,158.8,441.5,158.8L441.5,158.8z M468.5,137.5c-4,0-7,2.1-8.3,5.6
			V138h-2v22.3h2v-12.8c0-4.9,3.2-8.1,8-8.1c4.7,0,7.8,3.2,7.8,8.1v12.8h2v-13C478,141.3,474.3,137.5,468.5,137.5L468.5,137.5z
			 M497.8,138l-8.4,20.1l-8.3-20.1h-2.2l9.5,22.4l-3.7,8.8h2.1L500,138H497.8z"/>
	</g>
</g>
</svg>
