<svg viewBox="0 0 550 135" xmlns="http://www.w3.org/2000/svg" xmlns:xlink="http://www.w3.org/1999/xlink">
                     <defs>
                        <path id="a" d="M.873.393h153.565V90H.873z"></path>
                        <path id="c" d="M0 .7h165.602v81.42H0z"></path>
                     </defs>
                     <g fill="none" fill-rule="evenodd">
                        <path class="switch" d="M290.518 54.736c18.228-12.885 28.84-12.285 37.898 1.515 7.027-7.755 15.239-12.49 26.148-10.078 7.262 1.605 12 6.617 12.141 14.056.283 14.995-.051 30.002.227 44.997.09 4.829-2.676 4.305-5.741 4.353-3.421.054-6.286.344-6.146-4.793.326-11.991.173-23.998.075-35.998-.075-9.079-3.503-13.235-10.57-13.217-8.073.02-15.252 6.492-15.277 13.864-.039 11.5-.269 23.009.107 34.496.159 4.844-1.529 5.867-5.957 5.741-4.034-.116-6.379-.303-6.194-5.506.42-11.736.181-23.496.109-35.246-.053-8.596-3.9-13.264-10.774-13.347-7.612-.091-15.771 6.87-15.856 13.794-.138 11.249-.235 22.503-.015 33.749.087 4.456-.543 6.675-5.937 6.637-5.258-.037-5.423-2.451-5.391-6.409.134-16.5.042-33.001.066-49.501.005-3.605-1.139-7.356 5.23-7.355 6.016.001 6.535 2.863 5.857 8.248" fill="#e0035d"></path>
                        <g transform="translate(378 45)">
                           <path class="switch" d="M.981 32.282c0-8.49.242-16.989-.097-25.466-.185-4.634 1.877-5.254 5.774-5.234 4.015.023 6.421.276 6.325 5.489-.319 17.473-.357 34.961.012 52.433.121 5.712-3.077 4.851-6.588 5.121-4.18.32-5.665-1.045-5.518-5.377.305-8.98.092-17.976.092-26.966M61.833 52.784c-11.591 4.924-23.194.008-26.514-12.117-3.136-11.447.203-22.539 8.131-27.28 6.947-4.155 13.562-3.017 20.484.425 6.461 3.213 6.622 8.567 6.237 14.452-.098 1.49-.015 2.99-.015 4.484.204 7.898 1.517 15.855-8.323 20.036zM82.049 6.032c.021-3.234-1.109-4.223-4.32-4.396-5.104-.276-8.993.216-7.458 8.15C51.606-6.956 30.4 1.893 24.586 17.788c-2.264 6.19-3.26 12.581-2.505 19.09 1.294 11.158 5.141 21.196 16.307 25.823 10.785 4.47 21.012 2.845 29.697-5.571.368-.357 1.176-.257 1.821-.377.632 14.002-2.424 20.805-11.224 22.517-8.352 1.624-16.998 2.105-24.241-3.965-2.707-2.268-4.435-2.27-6.372.98-1.686 2.83-2.801 4.771.604 7.384 10.731 8.23 33.023 8.55 43.809.29 5.671-4.343 9.198-10.184 9.318-17.207.344-20.235.121-40.48.25-60.72zM123.191 55.764c-11.342-.006-19.893-9.782-19.83-22.672.061-12.704 9.062-22.77 20.171-22.561 11.343.213 19.113 9.76 18.949 23.281-.161 13.268-7.796 21.956-19.29 21.952zm.316-55.367c-18.355-.263-32.162 13.989-32.08 33.112.084 18.883 13.419 32.528 31.78 32.516 18.716-.012 31.198-13.035 31.231-32.584C154.47 13.931 142.05.662 123.507.397z" fill="#e0035d" mask="url(#b)"></path>
                        </g>
                        <path d="M240.003 103.292c-8.33.112-14.469-5.261-14.477-12.671-.009-7.92 5.235-12.495 14.326-12.498 10.208-.004 15.852 4.388 15.861 12.346.008 7.696-6.115 12.694-15.71 12.823zm27.47.011c.107-11.989.12-23.98-.023-35.967-.123-10.284-5.28-17.892-14.432-20.368-10.745-2.907-21.308-2.019-30.851 4.211-2.705 1.766-6.864 3.055-3.465 8.426 3.468 5.479 5.591 1.331 8.088-.159 7.557-4.513 15.391-6.094 23.281-1.445 7.428 4.376 5.649 11.711 5.369 18.79-15.653-9.175-29.846-8.748-37.745.862-5.944 7.233-5.669 19.251.602 26.271 8.364 9.362 22.486 9.552 37.147-.265-.672 7.938 4.585 5.638 8.343 5.874 5.233.328 3.664-3.637 3.686-6.23z" fill="#e0035d" class="switch"></path>
                        <g transform="translate(0 29)">
                           <path class="switch-2" d="M154.46 72.039c-9.185 6.985-16.811 10.742-26.137 9.985-9.856-.8-16.485-6.788-16.731-16.681-.355-14.249-.021-28.515-.256-42.768-.069-4.202 1.765-5.032 5.397-4.915 3.491.114 6.484.012 6.419 4.919-.153 11.503-.115 23.012 0 34.516.113 11.203 3.423 14.744 13.242 14.567 10.76-.193 17.16-5.804 17.175-15.098.018-11.005.212-22.016-.093-33.013-.13-4.671 1.448-6.013 5.987-5.96 4.315.05 6.217.927 6.137 5.797-.277 16.754-.083 33.515-.126 50.274-.009 3.285 1.213 7.223-4.735 6.986-4.703-.186-9.125.3-6.279-8.609M26.371 81.999c-10.558-.095-15.417-4.79-15.524-14.156-.127-10.998-.234-21.998-.132-32.994.039-4.212-.191-7.617-5.828-6.742-4.21.654-4.958-1.754-4.882-5.338.069-3.222.664-5.583 4.516-5.01 6.853 1.019 5.927-3.589 6.236-7.891.217-3.015-2.343-7.629 2.695-8.691 4.429-.935 9.409-1.221 8.279 6.225-1.017 6.702-.264 12.074 8.909 10.399 4.09-.747 4.05 2.342 4.138 5.279.096 3.208-.501 5.764-4.384 4.99-8.744-1.744-9.087 3.332-8.791 9.847.384 8.482-.054 16.999.238 25.488.183 5.327 2.293 9.809 8.734 7.858 3.391-1.026 4.485.044 5.423 2.687 1.07 3.011.55 5.249-2.697 6.664-2.613 1.139-5.237 1.564-6.93 1.385" fill="#F5BB37" mask="url(#d)"></path>
                        </g>
                        <path class="switch-2" d="M188.549 55.7c5.46-4.039 9.339-8.165 14.922-9.141 2.508-.438 6.006-1.445 5.663 3.204-.218 2.969 1.978 6.842-4.169 7.453-12.827 1.275-16.562 6.019-16.57 18.838-.005 9.488-.252 18.982.052 28.459.155 4.834-2.346 5.018-6.009 5.111-3.863.098-5.256-1.163-5.216-5.124.165-16.476-.031-32.955.145-49.431.036-3.414-2.175-8.118 4.851-8.526 6.716-.39 6.363 3.631 6.331 9.157M67.726 100.651c-9.568-.858-16.677-9.103-17.172-21.198-.349-8.541 2.187-16.454 10.011-21.274 6.227-3.835 12.838-3.769 19.126.082 7.375 4.517 9.693 11.643 9.653 16.421.088 18.026-8.65 27.131-21.618 25.969zm2.137-55.153c-17.758-.25-31.23 13.808-31.479 32.846-.246 18.808 13.561 32.777 32.277 32.66 18.354-.116 30.782-13.52 30.68-33.089-.101-19.339-12.541-32.15-31.478-32.417z" fill="#F5BB37"></path>
                        <g class="switch" fill="#e0035d">
                           <path d="M401.835 17.616c-2.502-.853-3.443-2.694-4.129-4.038-.334-.655-.651-1.274-.983-1.387-.388-.132-1.149.248-1.885.615-1.288.643-2.89 1.441-4.685.83-1.289-.439-1.708-1.602-2.078-2.628-.389-1.078-.724-2.01-1.928-2.42-1.04-.354-1.763-.002-2.763.483-1.219.591-2.735 1.327-4.991.559a7.614 7.614 0 01-.472-.18 38.894 38.894 0 00-2.143 3.723c3.567 2.046 7.996 4.284 12.546 5.834 4.551 1.55 9.425 2.481 13.5 3.038a39.07 39.07 0 00.577-4.276c-.186-.045-.369-.087-.566-.153"></path>
                           <path d="M378.959 7.971c1.573.537 2.54.067 3.66-.477 1.111-.54 2.372-1.15 4.093-.564 2.002.682 2.586 2.302 3.011 3.484.322.891.526 1.404.995 1.563 1.103.376 2.239-.191 3.336-.739 1.059-.528 2.152-1.074 3.234-.706 1.005.343 1.477 1.269 1.978 2.25.641 1.253 1.303 2.551 3.133 3.174.032.012.061.016.092.026.139-5.699-1.224-12.609-8.05-14.934-6.829-2.327-12.126 2.319-15.495 6.919.005.002.009.004.013.004M363.058 15.688c2.002.681 2.586 2.302 3.012 3.484.321.891.526 1.403.995 1.563 1.103.376 2.238-.191 3.336-.74 1.059-.527 2.152-1.073 3.234-.705 1.004.343 1.478 1.268 1.979 2.249.64 1.255 1.303 2.552 3.133 3.176 1.573.535 2.541.066 3.66-.477 1.111-.54 2.372-1.151 4.094-.564 2.002.682 2.585 2.301 3.011 3.483.322.892.527 1.404.995 1.564 1.102.375 2.238-.191 3.336-.74 1.058-.528 2.152-1.074 3.234-.705 1.004.342 1.477 1.268 1.978 2.248.64 1.256 1.303 2.552 3.133 3.176 1.573.536 2.541.066 3.66-.478 1.113-.539 2.372-1.149 4.094-.563 1.408.479 2.108 1.423 2.551 2.353 3.028-2.349 3.61-5.401 3.78-6.294.393-2.061-5.843-2.636-5.843-2.636s-12.306-.266-22.86-3.861c-10.553-3.594-20.464-10.896-20.464-10.896s-5.289-3.352-6.237-1.479c-.399.787-1.733 3.423-.927 6.968.878-.347 1.877-.549 3.116-.126"></path>
                           <path d="M409.377 33.316c-1.04-.355-1.763-.003-2.763.482-1.22.592-2.736 1.328-4.991.56-2.504-.853-3.443-2.694-4.129-4.038-.335-.655-.651-1.274-.983-1.387-.389-.132-1.151.247-1.886.615-1.287.642-2.89 1.442-4.685.831-1.289-.44-1.708-1.603-2.078-2.629-.388-1.078-.724-2.009-1.928-2.42-1.041-.354-1.763-.003-2.764.483-1.219.592-2.736 1.327-4.991.559-2.503-.852-3.442-2.693-4.129-4.037-.335-.656-.65-1.274-.982-1.387-.389-.133-1.15.248-1.886.614-1.288.643-2.889 1.443-4.684.831-1.29-.439-1.708-1.602-2.078-2.628-.388-1.079-.724-2.01-1.928-2.42-.769-.262-1.365-.137-2.027.142 1.871 4.657 7.657 10.469 23.026 15.704 15.021 5.117 23.127 4.209 27.522 1.787-.313-.745-.726-1.352-1.636-1.662"></path>
                        </g>
                     </g>
                     <rect x="510.81" y="22.76" fill="none" width="34.65" height="27.82"></rect>
                     <text transform="matrix(1 0 0 1 522 38.8369)" fill="#E22466" font-family="'ArialMT'" font-size="15px">R</text>
                     <circle fill="none" stroke="#E22466" stroke-miterlimit="10" cx="526" cy="35" r="11"></circle>
                  </svg>